<svg width="57" height="57" viewBox="0 0 57 57" fill="none" xmlns="http://www.w3.org/2000/svg">
<g clip-path="url(#clip0_6_402)">
<path d="M55.3669 27.8407C54.4597 27.8407 53.7339 28.5665 53.7339 29.4738V44.3286C53.7339 48.3689 50.4435 51.6471 46.4153 51.6471H10.5847C6.54435 51.6471 3.26613 48.3568 3.26613 44.3286V29.2318C3.26613 28.3246 2.54032 27.5988 1.63306 27.5988C0.725806 27.5988 0 28.3246 0 29.2318V44.3286C0 50.1713 4.75403 54.9133 10.5847 54.9133H46.4153C52.2581 54.9133 57 50.1592 57 44.3286V29.4738C57 28.5786 56.2742 27.8407 55.3669 27.8407Z" fill="#621DED"/>
<path d="M27.3508 41.9455C27.6653 42.2601 28.0887 42.4294 28.5 42.4294C28.9113 42.4294 29.3347 42.2722 29.6492 41.9455L40.0282 31.5665C40.6693 30.9254 40.6693 29.8972 40.0282 29.256C39.3871 28.6149 38.3589 28.6149 37.7177 29.256L30.1331 36.8528V3.71973C30.1331 2.81248 29.4072 2.08667 28.5 2.08667C27.5927 2.08667 26.8669 2.81248 26.8669 3.71973V36.8528L19.2702 29.256C18.629 28.6149 17.6008 28.6149 16.9597 29.256C16.3185 29.8972 16.3185 30.9254 16.9597 31.5665L27.3508 41.9455Z" fill="#621DED"/>
</g>
<defs>
<clipPath id="clip0_6_402">
<rect width="57" height="57" fill="white"/>
</clipPath>
</defs>
</svg>
